<?xml version="1.0" encoding="utf-8"?>
<!-- Generator: Adobe Adobe Illustrator 24.2.0, SVG Export Plug-In . SVG Version: 6.00 Build 0)  -->
<svg version="1.1" xmlns="http://www.w3.org/2000/svg" xmlns:xlink="http://www.w3.org/1999/xlink" x="0px" y="0px" width="1224px"
	 height="792px" viewBox="0 0 1224 792" style="enable-background:new 0 0 1224 792;" xml:space="preserve">
<style type="text/css">
	.st0{fill:none;stroke:#FFFFFF;stroke-miterlimit:10;}
	.st1{fill:#FFFFFF;}
	.st2{fill:#AE2322;stroke:#AE2322;stroke-miterlimit:10;}
	.st3{fill:#FFFFFF;stroke:#FFFFFF;stroke-miterlimit:10;}
	.st4{fill:#AE2521;stroke:#AE2322;stroke-miterlimit:10;}
	.st5{fill:#AF1F23;stroke:#AE2521;stroke-miterlimit:10;}
	.st6{fill:#AE2322;stroke:#AE2521;stroke-miterlimit:10;}
	.st7{stroke:#000000;stroke-miterlimit:10;}
	.st8{fill:#FFFFFF;stroke:#000000;stroke-miterlimit:10;}
	.st9{fill:#AE2521;}
	.st10{font-family:'SourceSansPro-Regular';}
	.st11{font-size:15px;}
</style>
<g id="Layer_2">
	<rect width="1224" height="792"/>
	<path class="st0" d="M703.62,321.05c38.18-50.17,94.05-86.6,155.36-101.28"/>
	<path class="st0" d="M428.44,160.92c54.49,31.71,97.51,82.68,119.63,141.72"/>
	<path class="st0" d="M735.12,451.65c28.7,39.94,75.37,66.43,124.38,70.6"/>
	<path class="st0" d="M493.05,432.08c-47.2-13.84-100.29-6.02-141.49,20.84"/>
	<path class="st0" d="M626.93,473.35c-9.86,12.89-11.92,30.06-11.96,46.29c-0.02,11.8,0.85,23.69,3.99,35.07
		c3.14,11.38,8.53,22.14,15.79,31.46"/>
</g>
<g id="Layer_1">
	<g>
		<path class="st1" d="M582.49,461.14c-7.72-0.61-15.23-1.66-22.71-2.99c-11.76-2.09-23.29-4.98-34.32-9.63
			c-6.23-2.62-12.16-5.79-17.17-10.42c-3.02-2.79-5.39-6.05-6.23-10.19c-1.17-5.79,1.02-10.5,4.86-14.62
			c4.52-4.86,10.16-8.07,16.11-10.8c6.48-2.97,13.22-5.21,20.1-7.02c0.46-0.12,0.91-0.3,1.52-0.51c-0.59-1.44-1.13-2.79-1.69-4.14
			c-4.09-9.79-6.61-19.99-8.13-30.47c-0.94-6.5-1.33-13.02-1.67-19.57c-0.27-5.21,0.12-10.36,0.42-15.53
			c0.13-2.27,1.46-3.95,3.07-5.43c3.28-3,7.17-4.98,11.21-6.72c10.52-4.51,21.55-7.12,32.82-8.86c6.16-0.95,12.35-1.6,18.57-1.93
			c1.02-0.05,1.38-0.44,1.29-1.4c-0.61-7-2.43-13.44-8.11-18.19c-1.59-1.33-3.11-2.77-4.54-4.27c-3.94-4.15-4.5-9.57-1.58-14.48
			c1.93-3.24,4.55-5.8,7.8-7.94c0.33,0.99-0.28,1.51-0.57,2.09c-1.55,3.16-2.72,6.41-3.06,9.96c-0.34,3.64,0.95,6.5,3.56,8.91
			c2.94,2.71,5.82,5.48,7.63,9.14c2.28,4.59,2.43,9.48,1.89,14.42c-0.13,1.23,0.13,1.58,1.33,1.5c1.42-0.1,2.84-0.09,4.27-0.05
			c1.11,0.04,1.43-0.43,1.63-1.51c1-5.47-0.55-10.5-2.5-15.48c-1.12-2.85-2.23-5.69-3.22-8.6c-2.27-6.7-0.83-12.81,2.66-18.64
			c1.95-3.26,4.37-6.15,7.26-8.63c0.28-0.24,0.52-0.57,0.95-0.56c0.31,0.23,0.17,0.46,0.04,0.7c-5.06,9.08-5.1,18.41-1.44,27.96
			c1.58,4.13,3.15,8.27,3.99,12.64c0.68,3.54,0.74,7.07-0.13,10.56c-0.36,1.44,0.02,1.78,1.44,1.86
			c17.33,0.94,34.31,3.71,50.52,10.2c4.22,1.69,8.28,3.71,11.83,6.64c2.61,2.14,3.86,4.72,4.04,8.2c0.28,5.25,0.17,10.49,0.18,15.74
			c0,0.27,0.01,0.55-0.01,0.82c-0.2,3.04-0.2,3.04,2.8,3.04c5.85,0,11.71,0.01,17.56,0c2.6-0.01,5.13,0.38,7.51,1.46
			c4.74,2.16,6.91,6.11,7.66,11.07c0.82,5.41-0.1,10.68-1.37,15.9c-1.47,6.07-3.2,12.06-7.26,17.05c-3.11,3.83-6.84,6.9-11.13,9.31
			c-0.46,0.26-1.04,0.37-1.39,1.07c2.45,1.21,4.84,2.5,7.15,3.92c3.13,1.93,6.04,4.14,8.5,6.9c6.65,7.44,6.46,16.09-0.5,23.31
			c-4.8,4.98-10.73,8.24-16.96,11c-12.03,5.32-24.7,8.37-37.61,10.56c-9.7,1.64-19.46,2.68-29.28,3.34
			c-11.32,0.76-22.63,0.71-33.94,0.41C592.98,462.1,587.8,461.78,582.49,461.14z M560.91,412.59c3.74,4.34,8.1,7.99,12.92,11.05
			c9.59,6.1,19.83,10.13,31.47,9.69c4.59-0.17,9.18,0,13.77-0.34c3.77-0.28,7.51-0.65,11.13-1.83c12.62-4.12,23.16-11.3,31.3-21.79
			c2.02-2.6,4-4.29,7.42-3.67c0.62,0.11,1.3-0.13,1.96-0.15c8.82-0.29,17.39-1.85,25.6-5.12c8.03-3.2,14.4-8.25,17.61-16.6
			c1.53-3.98,3.01-7.99,3.91-12.16c0.97-4.47,1.32-8.97,0.09-13.47c-1.14-4.19-4.1-6.91-8.25-7.39c-1.84-0.21-3.71-0.28-5.56-0.35
			c-4.92-0.18-9.86-0.06-14.74-0.57c-5.1-0.54-8.66,1.41-11.38,5.47c-0.43,0.64-0.68,1.49-1.48,1.76c-0.48-0.26-0.55-0.65-0.66-1.01
			c-0.96-3.27,1.35-7.14,5.03-8.22c1.19-0.35,1.58-0.87,1.66-2.13c0.36-6.01,0.15-12.02-0.04-18.03c-0.08-2.66-1.23-4.58-3.21-6.14
			c-1.9-1.49-4.01-2.61-6.2-3.66c-11.36-5.47-23.47-8.22-35.82-10.16c-6.15-0.97-12.36-1.47-18.58-1.81
			c-1.43-0.08-2.05,0.19-2.54,1.48c-1.88,4.94-4.55,9.45-7.74,13.65c-0.31,0.41-0.49,1.02-1.43,0.98
			c0.96-5.36,2.27-10.62,2.82-16.15c-2.06-0.27-3.97-0.07-5.86-0.14c-1.07-0.04-1.5,0.4-1.78,1.43c-0.38,1.4-0.56,2.92-1.69,4.52
			c0-1.55-0.07-2.68,0.02-3.8c0.11-1.41-0.36-2-1.85-1.86c-3.21,0.31-6.44,0.37-9.64,0.76c-10.98,1.31-21.82,3.31-32.32,6.86
			c-5.55,1.88-11.01,4.01-15.81,7.48c-1.97,1.42-3.79,3.01-3.92,5.73c-0.47,9.29-0.34,18.58,0.71,27.82
			c1.17,10.22,3.24,20.26,6.79,29.95C548.32,394.89,553.39,404.32,560.91,412.59z M668.05,437.35c-3.74,0.81-7.45,1.72-11.21,2.42
			c-14.55,2.69-29.27,3.65-44.03,3.74c-10.82,0.06-21.62-0.51-32.39-1.72c-10.01-1.13-19.92-2.75-29.57-5.66
			c-6.08-1.84-12.06-3.99-17.07-8.13c-5.45-4.5-5.53-10.52-0.2-15.13c3.32-2.88,7.22-4.7,11.28-6.26c1.66-0.64,3.32-1.25,5.15-1.94
			c-1.02-1.77-2.01-3.28-2.77-4.89c-0.57-1.21-1.26-1.36-2.45-1.03c-6.48,1.81-12.91,3.78-19.07,6.53
			c-6.03,2.69-11.74,5.84-16.37,10.7c-5.16,5.42-5.35,11.85-0.48,17.48c2.03,2.34,4.4,4.27,6.97,5.94
			c7.36,4.78,15.47,7.89,23.83,10.38c12.24,3.64,24.76,5.81,37.43,7.26c10.76,1.23,21.56,1.71,32.38,1.88
			c3.72,0.06,7.43-0.1,11.15-0.18c7.98-0.16,15.94-0.69,23.87-1.54c8.8-0.93,17.53-2.27,26.17-4.2
			c11.08-2.47,21.95-5.58,32.02-10.95c4.95-2.64,9.6-5.71,12.84-10.48c2.67-3.95,2.98-8.02,0.62-12.2c-0.56-1-1.22-1.96-1.98-2.81
			c-4.86-5.53-11.23-8.78-17.83-11.67c-0.44-0.19-0.84-0.13-1.27,0.02c-4.19,1.41-8.44,2.53-13.1,3.18
			c2.68,1.47,5.14,2.76,7.28,4.55c5.47,4.58,5.56,10.61,0.17,15.28c-1.03,0.89-2.17,1.67-3.32,2.39
			C680.6,433.71,674.48,435.54,668.05,437.35z M582.22,432.35c-2.84-1.16-5.54-2.59-8.18-4.14c-8.32-4.91-15.18-11.42-20.91-19.15
			c-0.7-0.95-1.32-1.21-2.46-0.82c-2.48,0.85-4.97,1.68-7.36,2.77c-3.04,1.39-6.02,2.91-8.37,5.38c-2.51,2.65-2.44,5.3,0.07,7.95
			c1.41,1.49,3.07,2.63,4.84,3.62c4.66,2.61,9.69,4.3,14.81,5.67c12.02,3.23,24.3,4.73,36.68,5.66c10.76,0.8,21.52,0.83,32.29,0.47
			c8.29-0.28,16.56-1.01,24.78-2.2c9.25-1.35,18.43-3.06,27.25-6.26c4.43-1.61,8.78-3.43,12.19-6.86c2.78-2.79,2.74-5.45-0.05-8.28
			c-0.53-0.54-1.12-1.05-1.73-1.5c-3.39-2.48-7.19-4.13-11.13-5.51c-0.69-0.24-1.41-0.34-2.1-0.21c-1.79,0.32-3.6,0.26-5.4,0.23
			c-1.03-0.02-1.72,0.35-2.35,1.17c-5.37,7.02-11.82,12.89-19.37,17.48c-7.74,4.7-15.88,8.35-25.09,8.84
			c-3.6,0.19-7.22,0.12-10.82,0.28C600.38,437.38,591.13,436.65,582.22,432.35z"/>
		<path class="st1" d="M620.38,274.75c-2.29-3.36-1.82-6.75-0.39-10.09c1.84-4.31,6.31-8.84,9.8-10.15c0.38,0.51-0.09,0.8-0.32,1.12
			c-2.58,3.62-4.3,7.58-4.94,12.01c-0.3,2.1,0.16,3.83,1.71,5.36c4.28,4.24,4.93,8.48,2.16,13.81c-1.24,2.39-2.94,4.43-5.02,6.18
			c-0.48-0.5-0.03-0.75,0.12-1.04c1.6-3.15,2.26-6.47,1.74-9.98c-0.23-1.58-1.13-2.81-2.15-3.98
			C622.18,276.96,621.32,275.9,620.38,274.75z"/>
		<path class="st1" d="M619.73,347.5c-4.97,0.28-9.78,0.33-14.59,0.2c-16.19-0.45-32.29-1.66-47.96-6.15
			c-5-1.43-9.92-3.14-13.99-6.58c-4.51-3.81-4.25-8.89,0.63-12.17c4.68-3.15,10.04-4.49,15.45-5.68c0.25-0.05,0.54-0.08,0.82,0.41
			c-1.46,0.58-2.9,1.15-4.34,1.73c-3.41,1.37-6.71,2.94-9.61,5.25c-3.44,2.74-3.4,5.76,0.15,8.29c2.69,1.92,5.67,3.26,8.92,4.31
			c0.9-2.36,3.03-2.99,5.12-3.61c5.63-1.66,11.43-2.35,17.24-2.98c8.54-0.92,17.11-1.1,25.68-1.41c8.86-0.32,17.69,0.13,26.52,0.4
			c7.98,0.25,15.91,1.04,23.78,2.33c2.8,0.46,5.59,1.03,8.27,2c1.54,0.55,3.07,1.16,3.95,2.79c3.23-1.28,6.4-2.49,8.84-4.99
			c2.1-2.16,2.09-4.1-0.1-6.27c-2.73-2.71-6.16-4.3-9.63-5.82c-1.31-0.57-2.62-1.12-3.87-1.85c1.63-0.12,3.13,0.36,4.61,0.79
			c4.16,1.19,8.32,2.48,11.53,5.6c3.44,3.35,3.21,7.56-0.43,10.67c-3.49,2.98-7.64,4.67-11.91,6.06
			c-8.87,2.88-18.01,4.44-27.27,5.39C631.66,346.81,625.8,347.42,619.73,347.5z"/>
		<path class="st1" d="M665.85,399.43c-1.04,0.78-1.67,1.86-2.9,2.47c-0.67-1.7-0.32-3.2,0.47-4.59c1.57-2.78,3.95-4.56,7.13-4.96
			c1.13-0.14,1.59-0.64,1.97-1.57c3.79-9.11,6.61-18.51,8.48-28.2c0.22-1.12,0.5-2.24,0.61-3.38c0.11-1.15,0.71-1.42,1.75-1.41
			c6.56,0.03,13.13-0.01,19.69,0.02c2.92,0.02,4.84,1.51,5.73,4.28c0.82,2.55,0.82,5.18,0.52,7.8c-0.39,3.48-1.25,6.87-2.13,10.25
			c-1.18,4.54-3.98,7.52-8.17,9.42c-6.05,2.74-12.49,3.92-18.99,4.84c-2.38,0.34-4.78,0.48-7.17,0.73
			c-0.83,0.09-1.57,0.43-2.29,0.84C668.87,396.9,667.42,398.15,665.85,399.43z M685.41,361.22c-0.94,0.07-0.86,0.81-0.97,1.44
			c-1.32,7.38-2.97,14.67-5.53,21.74c-0.85,2.35-1.76,4.68-2.64,7c0.55,0.47,1.12,0.24,1.63,0.21c2.84-0.19,5.64-0.72,8.41-1.36
			c4.97-1.15,9.88-2.46,13.99-5.75c1.38-1.1,2.35-2.45,2.87-4.1c1.33-4.17,2.44-8.39,2.99-12.74c0.58-4.62-1.03-6.46-5.69-6.46
			C695.55,361.2,690.63,361.2,685.41,361.22z"/>
		<path class="st1" d="M569.07,347.06c7.22,1.44,14.37,2.3,21.56,2.9c8.35,0.69,16.71,0.88,25.07,0.56c13-0.5,25.95-1.61,38.65-4.62
			c0.39-0.09,0.81-0.4,1.42,0.31c-9.91,4.12-20.17,6.21-30.66,7.16c-22.32,2.04-44.22,0.4-65.29-7.79c0.03-0.21,0.06-0.42,0.09-0.63
			c1.46,0.36,2.91,0.72,4.38,1.06C565.84,346.36,567.39,346.68,569.07,347.06z"/>
		<path class="st1" d="M686.27,446.85c-12.67,4.02-25.56,6.21-38.61,7.76c-16.93,2.01-33.92,2.31-50.92,1.74
			c-17.76-0.6-35.41-2.45-52.67-6.99c-6.3-1.66-12.5-3.6-18.36-6.5c-0.51-0.25-1.18-0.33-1.32-1.05c0.33-0.33,0.63-0.09,0.91,0.03
			c7.74,3.33,15.91,5.07,24.15,6.55c9.03,1.63,18.15,2.63,27.3,3.37c7.68,0.62,15.38,0.82,23.08,1.09c6.4,0.23,12.8,0.26,19.19,0.12
			c10.59-0.23,21.18-0.71,31.73-1.81c9.18-0.95,18.33-2.14,27.36-4.06c7.16-1.52,14.28-3.23,21.05-6.13
			c0.25-0.11,0.51-0.22,1.04,0.17c-2.12,1.48-4.43,2.29-6.7,3.15C691.15,445.17,688.76,445.96,686.27,446.85z"/>
	</g>
	<rect x="157.89" y="46.06" class="st2" width="234" height="124.34"/>
	<rect x="238.31" y="97.66" class="st3" width="73.17" height="21.15"/>
	<rect x="263.81" y="73.29" class="st3" width="22.16" height="69.88"/>
	<rect x="904.72" y="445.64" class="st2" width="234" height="124.34"/>
	<rect x="964.96" y="445.64" class="st3" width="33.61" height="124.34"/>
	
		<rect x="1004.91" y="389.85" transform="matrix(6.123234e-17 -1 1 6.123234e-17 513.9123 1529.5265)" class="st3" width="33.61" height="235.92"/>
	<rect x="847.96" y="73.29" class="st4" width="234" height="124.34"/>
	<rect x="847.96" y="113.51" class="st1" width="234" height="45"/>
	<rect x="488.25" y="614.82" class="st5" width="234" height="124.34"/>
	<rect x="488.25" y="642.49" class="st1" width="234" height="69"/>
	<rect x="77.48" y="383.47" class="st6" width="234" height="124.34"/>
	<rect x="77.48" y="429.6" class="st3" width="234" height="32.09"/>
	<rect x="114.42" y="383.47" class="st3" width="33.61" height="124.34"/>
	<rect x="187.98" y="326.64" transform="matrix(6.123234e-17 -1 1 6.123234e-17 -251.1598 640.1193)" width="13" height="238"/>
	<rect x="124.72" y="383.47" class="st7" width="13" height="124.34"/>
	<g>
		<path d="M605.66,646.17c0.09-0.15,0.16-0.27,0.25-0.37c0.57-0.64,0.85-0.65,1.4,0c0.26,0.31,0.48,0.55,0.92,0.3
			c0.14-0.08,0.36-0.05,0.42,0.1c0.24,0.71,0.96,0.71,1.47,1c0.74,0.41,1.32,0.88,1.3,1.82c0,0.25,0.17,0.43,0.39,0.45
			c0.63,0.05,0.98,0.69,1.61,0.74c0.19,0.02,0.37,0.2,0.6,0.2c0.26-0.01,0.41,0.13,0.41,0.38c-0.01,0.5,0.34,0.74,0.71,0.9
			c0.28,0.12,0.48,0.3,0.54,0.56c0.1,0.39,0.29,0.67,0.63,0.87c0.14,0.08,0.23,0.21,0.18,0.39c-0.06,0.21-0.24,0.23-0.42,0.24
			c-0.18,0-0.35-0.04-0.5-0.12c-0.7-0.38-1.5-0.39-2.24-0.58c-0.27-0.07-0.51,0.04-0.52,0.38c0.69,0.42,1.52,0.37,2.21,0.72
			c0.7,0.36,1.31,0.88,2.05,1.19c0.35,0.14,0.55,0.58,0.68,0.89c0.22,0.51,0.58,0.82,0.97,1.13c0.55,0.44,0.93,1.13,1.62,1.35
			c1.13,0.35,1.99,1.16,3.04,1.65c0.42,0.19,0.75,0.42,0.8,0.91c0.02,0.21,0.17,0.3,0.31,0.39c0.19,0.12,0.31,0.29,0.32,0.61
			c-0.92-0.01-1.75-0.38-2.61-0.52c-0.31,0.81-0.16,1.12,0.63,1.15c0.55,0.02,0.99,0.48,1.57,0.31c0.03-0.01,0.09,0.02,0.1,0.05
			c0.27,0.97,1.24,0.53,1.84,0.88c0.64,0.38,1.31,0.77,2.01,1.03c0.59,0.21,0.97,0.66,1.32,1.1c0.27,0.35-0.14,0.56-0.42,0.64
			c-0.34,0.09-0.7,0.08-1.02-0.1c-0.57-0.32-1.18-0.16-1.77-0.16c-0.16,0-0.28,0.12-0.32,0.3c0.12,0.26,0.36,0.3,0.59,0.27
			c0.45-0.06,0.79,0.14,1.14,0.36c0.57,0.37,1.15,0.67,1.88,0.5c0.43-0.1,0.83,0.02,1.18,0.35c0.57,0.52,1.38,0.56,2.03,0.95
			c0.3,0.18,0.65,0.26,0.96,0.41c0.61,0.31,0.79,1.22,0.34,1.75c-0.11,0.13-0.23,0.26-0.36,0.4c0.21,0.37,0.52,0.59,0.91,0.69
			c0.41,0.1,0.55,0.41,0.45,0.75c-0.1,0.37-0.43,0.19-0.69,0.19c-1.37-0.01-2.34-0.92-3.44-1.53c-0.68-0.37-1.45-0.35-2.17-0.52
			c-0.2-0.05-0.47,0.06-0.63-0.04c-0.71-0.44-1.19-0.03-1.69,0.38c-0.18,0.15-0.36,0.23-0.52,0.02c-0.03-0.34,0.42-0.23,0.43-0.56
			c-0.23-0.15-0.49-0.19-0.73-0.02c-0.21,0.15-0.23,0.38-0.13,0.63c0.13,0.31-0.25,0.46-0.27,0.74c0.16,0.26,0.44,0.39,0.69,0.39
			c0.86-0.02,1.63,0.29,2.42,0.52c0.17,0.05,0.38,0.05,0.5,0.15c0.78,0.65,1.72,0.83,2.67,0.94c0.92,0.11,1.76,0.4,2.59,0.76
			c0.63,0.27,1.13,0.74,1.39,1.39c0.31,0.76,0.93,1.26,1.75,1.3c0.45,0.02,0.82,0.22,1.12,0.55c0.19,0.21,0.26,0.48,0.06,0.69
			c-0.28,0.29-0.26,0.54-0.1,0.88c0.26,0.55,0.08,0.79-0.52,0.77c-0.7-0.03-1.36-0.06-2.07-0.37c-0.61-0.27-1.36-0.42-2.05-0.54
			c-1.07-0.19-2-0.68-2.82-1.29c-0.63-0.47-1.3-0.7-1.99-0.83c-0.6-0.12-1.24-0.32-1.89-0.13c-0.24,0.07-0.46,0.02-0.62-0.28
			c-0.2-0.38-0.87-0.45-1.16-0.11c-0.27,0.32-0.68,0.37-0.97,0.63c-0.13,0.12-0.33,0.17-0.45-0.03c-0.09-0.16,0.01-0.29,0.14-0.4
			c0.13-0.11,0.32-0.15,0.38-0.34c-0.98-0.54-1.39-0.52-2.16,0.15c-0.25,0.22-0.34,0.39-0.06,0.76c0.57,0.76,1.3,0.76,2.13,0.86
			c1.18,0.14,2.34,0.51,3.41,1.05c0.96,0.49,2.01,0.82,2.84,1.56c0.15,0.13,0.36,0.18,0.55,0.14c1-0.2,1.84,0.38,2.77,0.53
			c0.54,0.09,1.04,0.41,1.57,0.57c0.79,0.23,1.31,0.77,1.81,1.38c0.42,0.52,1.03,0.8,1.58,1.16c0.52,0.34,0.52,0.64,0.05,1.03
			c-0.52,0.44-1.14,0.7-1.78,0.48c-0.45-0.16-0.85-0.52-1.22-0.86c-0.35-0.33-0.73-0.41-1.2-0.49c-1.22-0.2-2.5-0.05-3.66-0.72
			c-0.48-0.28-1.17-0.3-1.77-0.24c-0.4,0.04-0.71,0.27-0.84,0.7c0.26,0.2,0.54,0.13,0.8,0.12c1.05-0.06,2,0.4,3.01,0.54
			c0.2,0.03,0.27,0.19,0.32,0.37c0.07,0.27,0.19,0.51,0.49,0.61c0.22-0.06-0.01-0.36,0.3-0.43c0.14,0.95,0.9,0.91,1.64,1.11
			c1.37,0.36,2.68,0.95,3.99,1.53c0.25,0.11,0.35,0.3,0.35,0.55c0,0.25-0.14,0.35-0.36,0.46c-0.4,0.19-0.94,0.13-1.16,0.65
			c-0.04,0.1-0.2,0.12-0.32,0.07c-0.74-0.28-1.55-0.29-2.28-0.64c-0.39-0.19-0.86-0.18-1.28-0.33c-0.31-0.11-0.71,0.03-0.96,0.31
			c-0.6,0.69-1.33,0.53-2.04,0.32c-0.69-0.2-1.36-0.48-2.09-0.4c-0.89,0.1-1.71-0.27-2.6-0.27c-0.9,0-1.73,0.1-2.49,0.61
			c-0.18,0.12-0.39,0.2-0.6,0.2c-1.05-0.03-2.06,0.35-3.1,0.39c-0.34,0.01-0.6,0.17-0.79,0.44c-0.37,0.53-0.88,0.72-1.5,0.73
			c-0.4,0.01-0.83-0.09-1.21,0.1c-0.61,0.3-1.07,0.71-1.09,1.46c0,0.09-0.04,0.19-0.08,0.28c-0.83,2.16-1.13,4.41-0.68,6.66
			c0.24,1.21,0.75,2.41,1.47,3.5c0.72,1.1,1.66,1.94,2.6,2.81c0.3,0.27,0.66,0.48,0.98,0.72c0.15,0.12,0.31,0.27,0.21,0.5
			c-0.08,0.19-0.23,0.31-0.45,0.32c-1.11,0.04-2.22,0.07-3.23-0.48c-0.67-0.36-1.43-0.48-2.07-0.92c-0.33-0.23-0.75-0.23-1.12-0.02
			c-0.33,0.19-0.72,0.24-1.07,0.26c-1.97,0.13-3.98,0.37-5.91-0.19c-0.69-0.2-1.37-0.5-2.09-0.62c-0.48-0.08-0.97,0.07-1.37,0.34
			c-0.56,0.38-1.13,0.64-1.81,0.73c-0.51,0.07-1.02,0.24-1.48,0.47c-0.85,0.43-1.71,0.3-2.57,0.13c-0.39-0.07-0.83,0.03-1.15-0.26
			c-0.04-0.13-0.01-0.23,0.07-0.29c1.22-0.83,1.81-2.16,2.61-3.32c0.36-0.51,0.24-1.15,0.43-1.72c0.25-0.76,0.24-1.6,0.52-2.36
			c0.12-0.34,0.08-0.69,0.09-1.04c0.01-0.31-0.01-0.61,0.24-0.87c0.18-0.18,0.19-0.46,0.04-0.65c-0.63-0.83-0.6-1.85-0.87-2.78
			c-0.23-0.83-0.79-1.48-1.45-1.91c-0.86-0.56-1.81-1.09-2.94-0.86c-0.17,0.03-0.37,0-0.52,0.08c-0.76,0.38-1.41,0.03-2.02-0.33
			c-0.67-0.4-1.36-0.53-2.12-0.38c-0.96,0.18-1.82-0.2-2.68-0.52c-0.15-0.06-0.22-0.17-0.18-0.32c0.06-0.19,0.21-0.22,0.37-0.16
			c0.79,0.3,1.44-0.2,2.2-0.29c-0.16-0.44-0.46-0.36-0.7-0.3c-0.64,0.17-1.33,0-1.94,0.33c-0.08,0.04-0.19,0.02-0.29,0.01
			c-0.65-0.07-1.24-0.19-1.91,0.2c-0.55,0.32-1.22-0.19-1.85-0.29c-0.28-0.05-0.56-0.1-0.85-0.13c-1.85-0.15-3.67,0.36-5.52,0.23
			c-0.66-0.05-0.92-0.37-0.74-0.93c0.08-0.24,0.28-0.32,0.47-0.39c0.36-0.13,0.53-0.41,0.7-0.73c0.26-0.5,0.63-0.85,1.19-1.09
			c1.32-0.56,2.75-0.72,4.07-1.23c0.34-0.13,0.58-0.36,0.9-0.58c-0.29-0.31-0.61-0.21-0.9-0.18c-0.15,0.02-0.3,0.08-0.45,0.12
			c-0.26,0.07-0.58,0.22-0.7-0.14c-0.12-0.36,0.29-0.33,0.46-0.47c-0.24-0.42-1.03-0.63-1.39-0.38c-0.26,0.18-0.16,0.35,0.03,0.52
			c0.19,0.16,0.27,0.35,0.09,0.55c-0.19,0.21-0.4,0.13-0.56-0.03c-0.7-0.69-1.49-0.99-2.48-0.78c-0.45,0.1-0.93,0.03-1.4,0.04
			c-0.3,0-0.51,0.18-0.7,0.37c-0.32,0.31-0.68,0.49-1.12,0.56c-0.28,0.04-0.58,0.13-0.82,0.27c-0.43,0.27-0.88,0.26-1.35,0.23
			c-0.32-0.02-0.57-0.09-0.59-0.49c-0.01-0.39,0.01-0.76,0.47-0.89c0.3-0.09,0.6-0.16,0.9-0.22c0.36-0.08,0.43-0.26,0.28-0.6
			c-0.21-0.46-0.02-0.98,0.4-1.16c0.79-0.35,1.47-0.84,2.04-1.48c0.57-0.63,1.25-1.06,2.02-1.44c0.59-0.3,1.24-0.65,1.66-1.27
			c-0.36-0.25-0.61,0.04-0.9,0.01c-0.22-0.02-0.45,0-0.52-0.27c-0.07-0.23,0.14-0.29,0.28-0.38c0.95-0.7,1.98-1.13,3.19-1.04
			c0.56,0.04,1-0.12,1.49-0.48c0.63-0.47,1.48-0.53,2.27-0.57c0.43-0.03,0.83-0.05,1.22-0.29c0.42-0.26,0.45-0.5,0.11-0.82
			c-0.06-0.05-0.1-0.12-0.16-0.17c-0.43-0.34-0.35-0.6,0.2-0.8c-0.33-0.43-0.78-0.67-1.09-1.05c-0.13-0.16-0.46-0.12-0.67-0.04
			c-1.22,0.44-2.52,0.49-3.76,0.86c-0.52,0.16-1.08,0.07-1.56-0.25c-0.35-0.23-0.45-0.94-0.07-1.23c1.33-1.01,2.4-2.43,4.08-2.9
			c0.77-0.21,1.49-0.84,2.39-0.46c0.06,0.03,0.21-0.03,0.26-0.09c0.46-0.58,1.14-0.51,1.76-0.59c0.52-0.06,1.05,0,1.56-0.18
			c0.15-0.05,0.3-0.11,0.33-0.29c0.03-0.19-0.11-0.26-0.21-0.38c-0.53-0.59-1.1-0.78-1.85-0.35c-0.28,0.16-0.65,0.12-0.98,0.08
			c-0.18-0.02-0.36-0.06-0.39-0.28c-0.03-0.2-0.02-0.42,0.19-0.51c0.47-0.19,0.49-0.47,0.31-0.91c-0.14-0.36,0.14-0.63,0.46-0.78
			c1.32-0.62,2.65-1.23,3.98-1.82c0.56-0.25,1.15-0.47,1.72-0.7c0.09-0.04,0.21-0.06,0.25-0.13c0.56-0.81,1.42-0.69,2.22-0.72
			c0.45-0.01,0.83-0.13,1.17-0.4c-0.2-0.54-0.67-0.69-1.38-0.4c-0.43,0.18-0.8,0.49-1.3,0.48c-0.02,0-0.05,0.01-0.05,0.02
			c-0.42,0.88-1.11,0.4-1.71,0.32c-0.28-0.04-0.49-0.07-0.67,0.26c-0.23,0.41-0.91,0.56-1.1,0.28c-0.29-0.41-0.07-0.74,0.23-1.07
			c0.93-1.03,2.03-1.85,3.15-2.65c0.3-0.22,0.65-0.07,0.96-0.26c-0.11-0.28-0.35-0.27-0.56-0.31c-0.16-0.03-0.32-0.08-0.34-0.26
			c-0.02-0.2,0.14-0.27,0.3-0.29c0.33-0.04,0.58-0.22,0.78-0.47c0.25-0.31,0.62-0.27,0.94-0.38c0.71-0.25,1.41-0.55,2.18-0.58
			c0.47-0.02,0.64-0.46,1-0.66c0.54-0.29,1.15-0.42,1.7-0.7c-0.45-0.6-0.92-0.56-1.43-0.03c-0.65,0.67-1.48,0.95-2.42,0.87
			c-0.15-0.01-0.32-0.06-0.37-0.23c-0.06-0.19,0.1-0.27,0.23-0.36c0.11-0.08,0.23-0.15,0.27-0.29c0.3-1.2,1.23-1.65,2.3-1.91
			c0.14-0.03,0.34-0.02,0.45,0.06c0.5,0.34,0.94-0.02,1.39-0.11c0.15-0.03,0.2-0.17,0.2-0.32c0-0.16-0.08-0.25-0.23-0.3
			c-0.22-0.08-0.48-0.12-0.46-0.44c0.02-0.31,0.23-0.45,0.5-0.58c0.31-0.14,0.61-0.24,0.95-0.21c0.56,0.05,0.92-0.31,1.3-0.63
			c-0.16-0.33-0.42-0.22-0.63-0.2c-0.15,0.02-0.29,0.11-0.45,0.13c-0.29,0.04-0.63,0.1-0.75-0.26c-0.11-0.33,0.1-0.53,0.39-0.69
			c0.51-0.27,0.85-0.74,1.25-1.13c0.69-0.68,0.97-0.73,1.84-0.33c0.35,0.16,0.71,0.12,1.09,0.01
			C605.8,646.75,605.52,646.51,605.66,646.17z M592.24,673.59c-0.29-0.23-0.09-0.33,0.12-0.44c0.18-0.1,0.44,0.02,0.58-0.19
			c-0.46-0.63-0.76-0.73-1.46-0.5c-0.13,0.04-0.27,0.08-0.4,0.05c-0.63-0.12-1.1,0.72-1.78,0.27c-0.01-0.01-0.06,0.04-0.1,0.05
			c-0.58,0.19-0.73,0.61-0.71,1.18c0.03,0.69,0.14,0.8,0.82,0.61c0.36-0.1,0.7-0.21,1.08-0.09c0.16,0.05,0.31-0.01,0.44-0.1
			c0.27-0.19,0.58-0.21,0.89-0.21c0.39,0,0.78,0,1.16-0.01c0.17,0,0.31-0.06,0.32-0.26c0.01-0.22-0.11-0.33-0.31-0.34
			C592.71,673.61,592.52,673.62,592.24,673.59z M601.42,691.12c0-0.19-0.01-0.39-0.01-0.58c-0.01-0.79-0.18-0.9-0.97-0.95
			c-0.53-0.04-0.77,0.48-1.27,0.48c-0.4,0-0.52,0.26-0.34,0.65c0.47,1.02,1.34,1.68,2.1,2.44c0.22,0.22,0.59,0.2,0.61-0.25
			C601.55,692.35,601.61,691.78,601.42,691.12z M610.96,676.63c0,0.12-0.01,0.23-0.01,0.35c0,0.85,0.21,1.05,1.04,0.97
			c0.32-0.03,0.61,0,0.92,0.08c0.37,0.1,0.91,0.21,1.02-0.25c0.15-0.63,0.5-1.21,0.52-1.98c-0.77,0-1.5,0.03-2.23-0.01
			C611.61,675.76,611.21,675.99,610.96,676.63z M582.34,684.33c0.52,0.38,1.2,0.4,1.7,0.84c0.2,0.18,0.63,0.28,0.89,0.09
			c0.66-0.48,1.42-0.56,2.18-0.68c0.22-0.04,0.52-0.04,0.62-0.44c-0.52-0.29-0.83-0.97-1.59-0.84c-1.16,0.2-2.3,0.48-3.48,0.48
			c-0.14,0-0.31,0.07-0.43,0.15C582.06,684.05,582.08,684.2,582.34,684.33z M587.81,683.28c0.44,0.88,1.11,0.88,2.16,0.69
			c0.42-0.08,0.82-0.18,1.25-0.02c0.3,0.11,0.71,0.09,0.76-0.28c0.04-0.3-0.32-0.43-0.62-0.5c-0.19-0.04-0.45,0.08-0.53-0.22
			c0.15-0.27,0.41-0.19,0.63-0.18c0.24,0.01,0.48,0.07,0.75,0.12c0.07-0.41,0.26-0.82-0.31-0.97c-0.62-0.16-1.32,0.28-1.47,0.91
			c-0.09,0-0.21,0.03-0.27-0.02c-0.65-0.46-1.32-0.01-1.98-0.05C587.97,682.75,587.8,682.93,587.81,683.28z M620.11,676.35
			c-0.75-0.14-1.53,0.02-2.29-0.27c-0.48-0.19-1.05,0.29-1.01,0.77c0.05,0.53,0.49,0.51,0.88,0.52c0.08,0,0.16-0.02,0.23-0.01
			c0.75,0.03,1.51-0.07,2.24,0.19c0.28,0.1,0.92-0.35,0.97-0.67c0.09-0.51-0.39-0.3-0.6-0.43
			C620.46,676.39,620.33,676.4,620.11,676.35z M613.27,691.29c0.01,0.34-0.09,0.64-0.27,0.93c-0.13,0.2-0.14,0.46,0.07,0.63
			c0.14,0.11,0.34,0.11,0.48-0.03c0.69-0.65,1.37-1.32,1.8-2.18c0.2-0.39,0.06-0.66-0.4-0.76
			C613.99,689.68,613.6,689.98,613.27,691.29z M617.53,686.99c0.84,0.07,1.68,0.21,2.52-0.05c-0.13-0.51-0.48-0.51-0.8-0.48
			c-1.31,0.12-2.52-0.24-3.74-0.63c-0.6-0.19-1.15-0.03-1.68,0.33c0.85,0.3,1.6,0.85,2.55,0.79
			C616.73,686.93,617.08,686.97,617.53,686.99z M601.43,671.12c-0.41,0.01-0.83-0.03-1.22,0.04c-0.34,0.06-0.79,0.16-0.65,0.69
			c0.3,1.07,0.69,1.3,1.78,1.13c0.23-0.04,0.46-0.06,0.7-0.09c0.3-0.03,0.44-0.19,0.32-0.47C602.17,671.94,602,671.44,601.43,671.12
			z M603.94,675.36c0.36,0.03,0.72,0.11,1.07-0.07c-0.29-0.66-1.99-1.41-2.78-1.16c-0.61,0.19-1.24,0.28-1.86,0.4
			c-0.1,0.02-0.19,0.03-0.28,0.06c-0.12,0.04-0.21,0.11-0.2,0.25c0.01,0.14,0.11,0.22,0.23,0.21c1.01-0.03,1.99,0.4,3,0.19
			C603.38,675.18,603.61,675.21,603.94,675.36z M597.04,673.16c-0.18,0.29-0.21,0.6,0.14,0.73c0.32,0.13,0.71,0.43,1.04-0.03
			c0.14-0.2,0.31-0.31,0.57-0.35c0.56-0.1,0.64-0.32,0.38-0.87c-0.1-0.21-0.21-0.42-0.29-0.63c-0.09-0.25-0.26-0.34-0.49-0.31
			c-0.35,0.05-0.68-0.03-1.01-0.15C597.13,672.07,597.48,672.64,597.04,673.16z M606.45,691.9c0.11,0.27,0.16,0.61,0.62,0.62
			c0.05-0.3,0.1-0.6,0.16-0.9c0.06-0.33,0.4-0.47,0.53-0.75c0.35-0.75,0.04-1.26-0.76-1.26c-0.15,0-0.31,0.01-0.46,0
			c-0.56-0.05-0.71,0.24-0.76,0.76C605.71,691.01,606.29,691.3,606.45,691.9z M588.24,687.53c-0.03-0.03-0.05-0.08-0.08-0.08
			c-1.44-0.04-2.88-0.43-4.31-0.01c-0.45,0.13-0.92,0.3-1.32,0.58c0.19,0.31,0.43,0.21,0.63,0.23c1.46,0.12,2.88-0.3,4.34-0.33
			C587.77,687.92,588.03,687.79,588.24,687.53z M623.64,672.41c0.5-0.4,0.46-0.96-0.08-1.29c-0.79-0.47-1.65-0.36-2.5-0.26
			c-0.23,0.03-0.49,0.14-0.57,0.57C621.52,671.71,622.46,672.29,623.64,672.41z M591.63,688.68c0.29-0.18,0.6-0.26,0.94-0.28
			c0.17-0.01,0.37-0.01,0.39-0.26c0.02-0.28-0.2-0.27-0.39-0.32c-0.45-0.13-0.97,0.07-1.37-0.17c-0.47-0.28-0.96-0.26-1.46-0.25
			c-0.17,0-0.39-0.02-0.4,0.23c-0.01,0.22,0.14,0.4,0.36,0.37c0.61-0.07,0.58,0.31,0.58,0.72c0,0.46,0.29,0.61,0.69,0.37
			C591.17,688.97,591.31,688.76,591.63,688.68z M625.16,685.13c0.27,0.05,0.53,0.14,0.8,0.15c0.68,0.02,1.4,0.28,2.02-0.2
			c0.15-0.12,0.5-0.23,0.29-0.53c-0.17-0.26-0.41-0.18-0.66-0.04c-0.21,0.12-0.56,0.35-0.73,0.05c-0.35-0.64-0.93-0.54-1.47-0.55
			c-0.3,0-0.62,0.05-0.71,0.39C624.62,684.72,624.79,684.96,625.16,685.13z M608.84,661.95c0.57-0.4,0.76-1.06,0.33-1.18
			c-0.75-0.21-1.54-0.42-2.33-0.15c-0.33,0.11-0.38,0.42-0.32,0.73c0.06,0.32,0.33,0.29,0.56,0.28
			C607.67,661.6,608.25,661.59,608.84,661.95z M619.66,662.04c0.26-0.62,0.06-0.98-0.58-1.03c-0.47-0.03-1.01-0.24-1.28,0.42
			c-0.03,0.08-0.24,0.1-0.36,0.13c-0.21,0.05-0.41,0.09-0.54,0.29c0.08,0.44,0.3,0.54,0.7,0.33c0.35-0.18,0.81-0.19,1.05,0.05
			C619.09,662.68,619.32,662.39,619.66,662.04z M610.74,658.41c0.18-0.27,0.01-0.43-0.2-0.49c-0.5-0.12-0.95-0.44-1.5-0.36
			c-0.27,0.04-0.53,0.02-0.78-0.15c-0.74-0.5-1.59-0.42-2.42-0.38c-0.14,0.01-0.26,0.08-0.29,0.25c0.15,0.34,0.45,0.39,0.77,0.38
			c1.4-0.05,2.78-0.02,3.99,0.85C610.43,658.6,610.57,658.54,610.74,658.41z M594.34,681.32c-0.34,0.05-0.65,0.19-0.62,0.56
			c0.02,0.39,0,0.87,0.5,1.02c0.38,0.11,0.51-0.28,0.72-0.47c0.22-0.2,0.33-0.56,0.68-0.59c0.32-0.03,0.49-0.17,0.39-0.49
			c-0.11-0.35-0.42-0.34-0.67-0.2C595.04,681.31,594.74,681.32,594.34,681.32z M603.86,661.13c0.35-0.04,0.62,0.2,0.95,0.23
			c0.39,0.05,0.65-0.16,0.68-0.54c0.03-0.4-0.31-0.3-0.55-0.32c-1.07-0.06-2.12,0.2-3.18,0.14c-0.15-0.01-0.31,0.02-0.35,0.24
			c0.03,0.04,0.06,0.11,0.1,0.12C602.25,661.17,603.01,660.96,603.86,661.13z M608.04,672.2c-0.24-0.67-0.82-0.42-1.28-0.45
			c-0.41-0.03-0.77,0.16-0.98,0.51c-0.17,0.29-0.06,0.59,0.3,0.67C606.84,673.09,607.54,673.02,608.04,672.2z M609.68,666.85
			c-0.33-0.08-0.59,0.16-0.9,0.19c-0.48,0.05-0.51,0.44-0.43,0.73c0.08,0.32,0.48,0.5,0.76,0.35c0.5-0.26,1.05-0.4,1.55-0.64
			c0.14-0.07,0.29-0.15,0.24-0.34c-0.05-0.19-0.21-0.2-0.37-0.22C610.28,666.9,610.03,666.88,609.68,666.85z M595.26,691.96
			c0.3-0.37-0.02-0.57-0.24-0.75c-0.63-0.51-1.76-0.24-2.44,0.6c0.31,0.06,0.61,0.15,0.91,0.17
			C594.05,692,594.61,691.98,595.26,691.96z M608.44,654.14c0.18-0.01,0.34,0.16,0.48,0.09c-0.22-0.88-0.99-0.8-1.6-0.91
			c-0.62-0.12-1.27-0.09-2.01,0.03C606.1,653.95,606.76,654.1,608.44,654.14z M618.52,690c-0.31,0.02-0.62,0.01-0.93,0.05
			c-0.38,0.06-0.49,0.34-0.45,0.69c0.03,0.39,0.33,0.33,0.57,0.31c0.48-0.05,0.92-0.25,1.41-0.29c0.26-0.02,0.56-0.31,0.5-0.62
			c-0.07-0.35-0.41-0.16-0.64-0.18C618.86,689.96,618.74,689.98,618.52,690z M601.02,660.13c0.15-0.15,0.31-0.31,0.19-0.55
			c-0.12-0.23-0.34-0.2-0.55-0.24c-0.49-0.1-0.82,0.3-1.25,0.36c-0.18,0.03-0.36,0.06-0.42,0.25c-0.07,0.24,0.13,0.36,0.29,0.45
			C599.89,660.75,600.43,660.51,601.02,660.13z M594.29,665.99c-0.71-0.23-1.44-0.15-2.15-0.06c-0.15,0.02-0.3,0.18-0.41,0.31
			c-0.13,0.15-0.09,0.33,0.04,0.48c0.11,0.14,0.24,0.29,0.44,0.2C592.88,666.6,593.66,666.52,594.29,665.99z M596.33,691.51
			c0.28-0.02,0.58,0.31,0.81,0.03c0.23-0.28-0.16-0.52-0.18-0.8c-0.01-0.1-0.08-0.22-0.16-0.3c-0.29-0.3-0.69-0.38-0.99-0.11
			c-0.31,0.28-0.21,0.63,0.12,0.89C596.05,691.3,596.15,691.39,596.33,691.51z M607.47,667.69c-0.01-0.27,0.16-0.6-0.24-0.74
			c-0.35-0.12-1.24,0.08-1.37,0.3c-0.06,0.11-0.04,0.22,0.02,0.33C606.12,667.95,607.06,668.07,607.47,667.69z M611.48,662.53
			c0.19-0.05,0.38-0.08,0.56-0.15c0.16-0.06,0.32-0.18,0.31-0.38c-0.01-0.24-0.23-0.22-0.39-0.27c-0.43-0.11-0.87-0.16-1.28-0.36
			c-0.13-0.06-0.27-0.05-0.35,0.1c-0.07,0.13,0.02,0.22,0.11,0.3C610.75,662.02,611.08,662.27,611.48,662.53z M607.17,676.75
			c0.26-0.17,0.35-0.44,0.24-0.7c-0.13-0.31-0.42-0.17-0.67-0.14c-0.25,0.02-0.5,0.01-0.76,0.04c-0.19,0.02-0.49-0.08-0.5,0.24
			c-0.01,0.26,0.27,0.31,0.47,0.36C606.32,676.63,606.71,676.69,607.17,676.75z M634.78,684.08c-0.44-0.12-0.91-0.11-1.35-0.29
			c-0.17-0.07-0.4-0.04-0.48,0.19c-0.06,0.16-0.05,0.32,0.14,0.38c0.62,0.21,1.24,0.38,1.9,0.2
			C635.05,684.37,634.94,684.25,634.78,684.08z M594.43,672.62c-0.03-0.29,0.15-0.67-0.19-0.83c-0.33-0.15-0.64,0.04-0.86,0.3
			c-0.13,0.16-0.14,0.4,0.08,0.49C593.76,672.71,594.03,673.16,594.43,672.62z M589.76,667.21c0.16,0.38,0.46,0.43,0.74,0.2
			c0.34-0.27,0.06-0.57-0.07-0.82c-0.19-0.36-0.53-0.31-0.8-0.13C589.27,666.7,589.61,666.92,589.76,667.21z M603.61,653.04
			c-0.29-0.16-0.6-0.16-0.91-0.1c-0.27,0.05-0.53,0.23-0.4,0.51c0.12,0.27,0.46,0.33,0.76,0.31
			C603.28,653.74,603.68,653.28,603.61,653.04z M596.86,660.28c0.34,0.47,0.8,0.31,1.2,0.18c0.24-0.07,0.31-0.35,0.05-0.55
			C597.81,659.67,597.1,659.84,596.86,660.28z M615.07,705.23c0.22,0.1,0.43,0.11,0.54-0.13c0.09-0.2,0-0.43-0.2-0.48
			c-0.3-0.07-0.51-0.25-0.74-0.43c-0.14-0.12-0.32-0.13-0.45,0.1C614.38,704.67,614.73,704.89,615.07,705.23z M626.03,674.28
			c-0.16-0.14-0.31-0.3-0.49-0.41c-0.16-0.09-0.35-0.09-0.48,0.07c-0.11,0.13-0.13,0.31-0.02,0.43c0.24,0.25,0.47,0.51,0.89,0.43
			C626.34,674.74,626.34,674.59,626.03,674.28z M622.74,689.97c0.23-0.15,0.34-0.34,0.07-0.54c-0.48-0.36-1.12-0.07-1.24,0.56
			c0.07,0.02,0.15,0.05,0.22,0.05C622.08,690.03,622.37,690.01,622.74,689.97z M602.66,659.9c0.3-0.09,0.55-0.27,0.77-0.46
			c0.14-0.12,0.19-0.29,0.06-0.46c-0.11-0.14-0.24-0.15-0.41-0.1C602.54,659.03,602.44,659.2,602.66,659.9z M604.17,649.99
			c0.24,0.15,0.56,0.32,0.7,0c0.25-0.56-0.48-0.39-0.63-0.7c-0.09-0.18-0.32-0.13-0.43,0.05
			C603.58,649.68,603.87,649.81,604.17,649.99z M596.41,671.74c-0.28,0.06-0.32,0.26-0.26,0.49c0.1,0.33,0.32,0.54,0.66,0.62
			C597.08,672.06,597.03,671.92,596.41,671.74z M587.48,673.49c-0.22,0-0.49-0.01-0.46,0.3c0.05,0.42,0.43,0.49,0.8,0.65
			C587.81,674.06,588.06,673.69,587.48,673.49z M616.03,656.55c-0.32,0.2-0.16,0.39,0.03,0.55c0.32,0.27,0.67,0.38,1.21,0.14
			C616.79,656.96,616.45,656.75,616.03,656.55z M597.98,657.33c-0.03,0.23-0.12,0.49,0.18,0.59c0.18,0.06,0.28-0.11,0.34-0.25
			c0.09-0.2,0.2-0.43,0-0.59C598.32,656.94,598.14,657.07,597.98,657.33z M609.64,648.91c0.06,0.21,0.19,0.36,0.42,0.3
			c0.23-0.06,0.43-0.17,0.39-0.53C610.17,648.74,609.82,648.15,609.64,648.91z M601.11,653.27c-0.2,0.09-0.32,0.25-0.22,0.46
			c0.1,0.22,0.32,0.19,0.51,0.13c0.15-0.04,0.3-0.15,0.28-0.33C601.64,653.27,601.43,653.23,601.11,653.27z M637.21,685.51
			c-0.29-0.24-0.59-0.35-0.89,0C636.76,685.93,636.92,685.94,637.21,685.51z M621.41,661.46c-0.2-0.04-0.41-0.06-0.48,0.18
			c-0.06,0.22,0.02,0.41,0.33,0.53C621.35,661.94,621.76,661.87,621.41,661.46z M608.42,705.02c0.18,0.06,0.37,0.13,0.55-0.02
			c0.06-0.24-0.05-0.38-0.27-0.41c-0.16-0.02-0.36-0.06-0.47,0.12C608.15,704.84,608.23,704.92,608.42,705.02z M589.06,664.73
			c-0.16,0.04-0.36,0.03-0.37,0.28c0.17,0.26,0.4,0.25,0.65,0.15c0.09-0.04,0.15-0.13,0.14-0.23
			C589.47,664.71,589.3,664.74,589.06,664.73z M620.21,661.92c-0.06,0.22-0.1,0.44,0.21,0.49c0.12,0.02,0.26-0.03,0.25-0.17
			C620.66,662,620.6,661.77,620.21,661.92z M584.43,689.89c-0.1-0.22-0.24-0.36-0.48-0.21c-0.11,0.07-0.12,0.2-0.03,0.3
			C584.08,690.15,584.27,690.2,584.43,689.89z M593.64,673.95c0.21,0.06,0.41,0.05,0.57-0.14
			C593.79,673.52,593.74,673.53,593.64,673.95z M632.86,670.56c-0.22,0-0.45-0.03-0.59,0.27
			C632.59,670.91,632.87,671.05,632.86,670.56z"/>
	</g>
	<circle class="st8" cx="391.89" cy="42.67" r="30.62"/>
	<circle class="st8" cx="313.48" cy="371.79" r="30.62"/>
	<circle class="st8" cx="714.9" cy="607.03" r="30.62"/>
	<circle class="st8" cx="1138.72" cy="439.14" r="30.62"/>
	<circle class="st8" cx="1077.48" cy="59.04" r="30.62"/>
	<circle class="st8" cx="1077.48" cy="59.04" r="30.62"/>
	<text transform="matrix(1 0 0 1 382.5639 45.8981)" class="st9 st10 st11">2,2</text>
	<text transform="matrix(1 0 0 1 303.466 376.5312)" class="st9 st10 st11">2,4</text>
	<text transform="matrix(1 0 0 1 705.567 608.8245)" class="st9 st10 st11">1,7</text>
	<text transform="matrix(1 0 0 1 1128.7056 443.8805)" class="st9 st10 st11">2,4</text>
	<text transform="matrix(1 0 0 1 1067.8792 60.5438)" class="st9 st10 st11">2,4</text>
</g>
</svg>
